{
	"asset":{
		"version":"2.0",
		"generator":"Houdini GLTF 2.0 Exporter"
	},
	"accessors":[
		{
			"bufferView":0,
			"componentType":5125,
			"count":95847,
			"type":"SCALAR",
			"min":[0
			],
			"max":[95846
			]
		},
		{
			"bufferView":1,
			"componentType":5126,
			"count":95847,
			"type":"VEC3",
			"min":[-0.617470384,0.00492780702,-0.156215951
			],
			"max":[0.617470324,1.70003688,0.149601087
			]
		},
		{
			"bufferView":2,
			"componentType":5126,
			"count":95847,
			"type":"VEC3",
			"min":[-0.99997139,-0.999993086,-0.999997318
			],
			"max":[0.999841273,0.999989629,1
			]
		}
	],
	"buffers":[
		{
			"uri":"Nyotengu_data.bin",
			"byteLength":2683716,
			"name":"main_buffer"
		}
	],
	"bufferViews":[
		{
			"buffer":0,
			"byteLength":383388,
			"target":34963
		},
		{
			"buffer":0,
			"byteOffset":383388,
			"byteLength":1150164,
			"target":34962
		},
		{
			"buffer":0,
			"byteOffset":1533552,
			"byteLength":1150164,
			"target":34962
		}
	],
	"nodes":[
		{
			"name":"geo1",
			"mesh":0
		}
	],
	"meshes":[
		{
			"primitives":[
				{
					"attributes":{
						"NORMAL":2,
						"POSITION":1
					},
					"indices":0
				}
			]
		}
	],
	"scenes":[
		{
			"nodes":[0
			]
		}
	],
	"scene":0
}
