{
	"asset":{
		"version":"2.0",
		"generator":"Houdini GLTF 2.0 Exporter"
	},
	"accessors":[
		{
			"bufferView":0,
			"componentType":5125,
			"count":96333,
			"type":"SCALAR",
			"min":[0
			],
			"max":[96332
			]
		},
		{
			"bufferView":1,
			"componentType":5126,
			"count":96333,
			"type":"VEC3",
			"min":[-5,0,-5
			],
			"max":[5,1.70003688,5
			]
		},
		{
			"bufferView":2,
			"componentType":5126,
			"count":96333,
			"type":"VEC3",
			"min":[-0.99997139,-0.999993086,-0.999997318
			],
			"max":[0.999841273,1,1
			]
		}
	],
	"buffers":[
		{
			"uri":"NyotenguGround_data.bin",
			"byteLength":2697324,
			"name":"main_buffer"
		}
	],
	"bufferViews":[
		{
			"buffer":0,
			"byteLength":385332,
			"target":34963
		},
		{
			"buffer":0,
			"byteOffset":385332,
			"byteLength":1155996,
			"target":34962
		},
		{
			"buffer":0,
			"byteOffset":1541328,
			"byteLength":1155996,
			"target":34962
		}
	],
	"nodes":[
		{
			"name":"geo1",
			"mesh":0
		}
	],
	"meshes":[
		{
			"primitives":[
				{
					"attributes":{
						"NORMAL":2,
						"POSITION":1
					},
					"indices":0
				}
			]
		}
	],
	"scenes":[
		{
			"nodes":[0
			]
		}
	],
	"scene":0
}
